{"glyphs":{"\u0000":{"ha":463,"x_min":0,"x_max":0,"o":""},"\r":{"ha":333,"x_min":0,"x_max":0,"o":""}," ":{"ha":389,"x_min":0,"x_max":0,"o":""},"A":{"ha":729,"x_min":19,"x_max":715,"o":"m 375 992 q 447 970 414 992 q 490 910 479 949 l 707 131 q 694 43 715 81 q 631 -6 674 6 q 600 -10 614 -10 q 528 14 560 -10 q 486 72 497 38 l 461 188 l 269 183 l 240 68 q 199 13 229 36 q 131 -11 168 -11 q 52 21 85 -11 q 19 100 19 53 q 20 117 19 108 q 24 135 21 125 l 272 913 q 313 973 286 954 q 375 992 340 992 m 372 590 l 318 375 l 419 376 l 372 590 z "},"B":{"ha":771,"x_min":89,"x_max":732,"o":"m 196 983 l 392 985 q 510 961 454 985 q 607 896 565 938 q 672 799 649 854 q 696 683 696 744 q 671 582 696 632 q 608 506 646 532 q 699 415 667 474 q 732 293 732 356 q 708 175 732 231 q 644 78 685 119 q 549 13 603 36 q 432 -11 494 -11 l 196 -11 q 115 22 139 -11 q 92 99 92 54 l 89 875 q 120 951 89 919 q 196 983 151 983 m 304 765 l 304 588 l 392 588 q 453 615 428 588 q 478 679 478 643 q 453 740 478 715 q 392 765 428 765 l 304 765 m 304 378 l 304 207 l 432 207 q 491 231 467 207 q 515 290 515 256 q 491 351 515 325 q 432 378 467 378 l 304 378 z "},"C":{"ha":753,"x_min":47,"x_max":711,"o":"m 400 989 q 594 926 517 989 q 697 749 672 863 q 701 715 701 732 q 672 636 701 668 q 594 604 643 604 q 526 629 549 604 q 488 684 504 654 q 454 739 472 714 q 400 764 436 764 q 331 731 357 764 q 292 653 306 699 q 276 560 279 608 q 272 481 272 513 q 274 397 272 446 q 287 306 275 349 q 325 232 299 263 q 400 201 351 201 q 467 224 444 201 q 506 273 489 246 q 545 322 524 300 q 610 344 567 344 q 683 319 654 344 q 711 247 711 294 q 706 204 711 222 q 663 108 692 150 q 594 39 635 67 q 504 -3 554 11 q 400 -17 454 -17 q 225 29 293 -17 q 117 148 157 75 q 63 310 78 221 q 47 486 47 399 q 65 658 47 569 q 123 821 82 747 q 231 942 164 894 q 400 989 299 989 z "},"D":{"ha":776,"x_min":89,"x_max":729,"o":"m 201 983 l 317 983 q 464 958 390 983 q 597 877 538 933 q 692 729 656 821 q 729 503 729 638 q 693 272 729 369 q 597 110 657 174 q 463 15 538 46 q 310 -17 388 -17 l 201 -17 q 126 16 157 -17 q 94 93 94 49 l 89 874 q 98 917 89 897 q 123 951 107 936 q 159 975 139 967 q 201 983 179 983 m 303 765 l 303 201 q 451 281 396 201 q 507 507 507 360 q 485 656 507 604 q 433 733 463 708 q 372 761 403 757 q 324 765 342 765 l 303 765 z "},"E":{"ha":674,"x_min":89,"x_max":640,"o":"m 197 978 l 531 978 q 610 953 579 975 q 640 885 640 931 q 608 796 640 832 q 521 760 575 760 l 306 761 l 306 599 l 513 601 q 584 571 560 603 q 608 503 608 539 q 578 433 608 458 q 508 408 549 408 l 306 410 l 306 211 l 531 213 q 608 178 576 213 q 640 94 640 144 q 615 23 640 54 q 531 -8 589 -8 l 197 -8 q 142 0 163 -8 q 110 23 121 8 q 95 58 99 38 q 92 101 92 79 l 89 868 q 121 951 89 925 q 197 978 153 978 z "},"F":{"ha":660,"x_min":89,"x_max":649,"o":"m 197 978 l 553 979 q 625 948 601 976 q 649 882 649 919 q 613 794 649 831 q 526 758 578 758 l 307 760 l 307 599 l 501 601 q 543 593 525 601 q 574 570 561 585 q 593 538 586 556 q 600 500 600 519 q 565 430 600 456 q 489 404 531 404 l 307 406 l 306 99 q 273 21 306 53 q 190 -11 240 -11 q 121 15 150 -11 q 92 99 92 40 l 89 868 q 115 945 89 913 q 197 978 142 978 z "},"G":{"ha":771,"x_min":47,"x_max":726,"o":"m 400 983 q 503 968 454 983 q 590 924 553 953 q 650 856 628 896 q 672 764 672 815 q 650 682 672 715 q 583 649 628 649 q 515 669 547 649 q 468 722 483 690 q 435 757 453 750 q 404 764 417 764 q 332 730 358 764 q 292 648 306 696 q 276 548 279 600 q 272 458 272 496 q 274 375 272 419 q 290 292 276 331 q 331 228 303 254 q 408 203 358 203 q 477 224 453 203 q 512 271 501 244 q 524 321 522 297 q 526 350 526 344 l 486 347 q 449 351 468 346 q 413 367 429 356 q 385 397 396 379 q 374 440 374 415 q 401 512 374 481 q 483 543 429 543 l 610 546 q 672 529 649 546 q 707 486 694 513 q 723 428 719 460 q 726 367 726 396 q 708 223 726 292 q 649 101 689 154 q 547 15 608 47 q 400 -17 486 -17 q 238 23 306 -17 q 128 126 171 63 q 67 272 86 190 q 47 438 47 353 q 142 843 47 703 q 400 983 236 983 z "},"H":{"ha":807,"x_min":89,"x_max":718,"o":"m 194 983 q 276 951 243 983 q 308 875 308 919 l 308 590 l 500 594 l 500 875 q 533 952 500 921 q 615 983 567 983 q 687 958 656 983 q 718 875 718 932 l 715 111 q 708 49 715 72 q 687 12 700 25 q 657 -6 674 -1 q 624 -11 640 -11 q 535 21 568 -11 q 501 99 501 53 l 501 403 l 307 400 l 307 111 q 275 24 307 58 q 194 -11 243 -11 q 121 17 153 -11 q 89 99 89 46 l 89 875 q 121 957 89 931 q 194 983 153 983 z "},"I":{"ha":400,"x_min":89,"x_max":311,"o":"m 207 983 q 276 956 247 983 q 311 875 306 928 l 308 108 q 300 65 308 86 q 276 26 292 43 q 240 -1 261 10 q 193 -11 218 -11 q 122 17 153 -11 q 90 97 90 44 l 89 867 q 98 910 89 889 q 123 947 107 931 q 160 974 139 964 q 207 983 182 983 z "},"J":{"ha":678,"x_min":11,"x_max":594,"o":"m 478 983 q 562 951 529 983 q 594 874 594 919 l 593 326 q 573 183 593 247 q 515 75 553 119 q 422 7 476 31 q 300 -17 368 -17 q 165 13 221 -17 q 76 86 110 43 q 26 178 42 129 q 11 265 11 228 q 43 362 11 328 q 121 396 75 396 q 191 365 165 396 q 222 289 217 335 q 297 203 231 203 q 324 205 310 203 q 350 218 338 207 q 370 255 363 229 q 378 326 378 281 l 376 857 q 381 903 376 881 q 397 943 386 925 q 428 972 408 961 q 478 983 449 983 z "},"K":{"ha":769,"x_min":89,"x_max":742,"o":"m 200 983 q 274 955 242 983 q 306 875 306 926 l 306 589 l 546 929 q 585 963 561 950 q 635 975 608 975 q 706 944 678 975 q 735 871 735 913 q 707 788 735 824 l 494 486 l 718 174 q 742 93 742 133 q 714 22 742 51 q 644 -8 686 -8 q 542 53 588 -8 l 306 385 l 306 113 q 272 26 306 63 q 183 -11 238 -11 q 149 -6 165 -11 q 119 14 132 0 q 98 52 106 28 q 90 114 90 76 l 89 860 q 122 947 93 911 q 200 983 151 983 z "},"L":{"ha":653,"x_min":89,"x_max":643,"o":"m 201 983 q 271 955 243 983 q 306 874 299 926 l 306 211 l 533 213 q 611 180 579 213 q 643 103 643 147 q 611 25 643 57 q 533 -7 579 -7 l 196 -7 q 120 25 151 -7 q 89 101 89 57 l 90 867 q 124 949 94 914 q 201 983 153 983 z "},"M":{"ha":1053,"x_min":76,"x_max":975,"o":"m 226 983 q 289 963 264 983 q 328 906 314 942 l 528 375 l 732 918 q 773 966 743 949 q 835 983 803 983 q 908 953 878 983 q 940 879 938 924 l 974 92 q 966 52 975 71 q 942 19 957 33 q 907 -3 926 6 q 867 -11 888 -11 q 824 -1 844 -11 q 790 25 804 8 q 767 63 775 42 q 757 104 758 83 l 743 394 l 619 68 q 583 24 608 40 q 529 7 558 7 q 471 26 497 7 q 433 74 444 44 l 311 394 l 299 99 q 263 21 296 53 q 183 -11 231 -11 q 104 22 132 -11 q 79 101 76 54 l 114 879 q 149 953 117 924 q 226 983 181 983 z "},"N":{"ha":835,"x_min":89,"x_max":746,"o":"m 197 983 q 256 966 229 983 q 297 921 282 949 l 528 482 l 528 886 q 556 956 528 928 q 626 983 585 983 q 710 951 676 983 q 744 867 744 918 l 746 99 q 713 22 746 54 q 636 -11 681 -11 q 574 8 597 -11 q 535 60 551 28 l 306 489 l 304 104 q 277 20 304 51 q 197 -11 250 -11 q 122 21 153 -11 q 90 97 90 53 l 89 875 q 113 953 89 924 q 197 983 138 983 z "},"O":{"ha":822,"x_min":50,"x_max":772,"o":"m 418 989 q 601 944 532 989 q 709 831 671 900 q 760 678 747 763 q 772 515 772 594 q 758 333 772 426 q 703 161 743 239 q 594 33 664 83 q 414 -17 525 -17 q 237 31 307 -17 q 125 152 167 78 q 67 319 83 226 q 50 504 50 413 q 64 667 50 582 q 117 824 78 753 q 229 942 157 896 q 418 989 301 989 m 418 772 q 338 741 367 772 q 294 668 308 710 q 278 585 281 626 q 275 522 275 543 q 280 424 275 479 q 299 319 285 368 q 341 237 314 271 q 411 203 368 203 q 485 240 457 203 q 526 326 513 276 q 544 425 540 375 q 549 501 549 475 q 547 585 549 539 q 532 674 544 632 q 493 744 519 715 q 418 772 467 772 z "},"P":{"ha":753,"x_min":88,"x_max":739,"o":"m 200 989 l 408 989 q 537 963 476 989 q 642 892 597 936 q 713 787 686 847 q 739 657 739 726 q 713 528 739 589 q 642 422 686 467 q 537 350 597 376 q 408 325 476 324 l 308 326 l 308 108 q 276 18 306 49 q 201 -12 246 -12 q 124 20 154 -12 q 93 97 93 53 l 88 879 q 121 957 88 925 q 200 989 154 989 m 308 771 l 308 543 l 408 543 q 487 576 454 543 q 519 657 519 610 q 487 738 519 704 q 408 771 454 771 l 308 771 z "},"Q":{"ha":789,"x_min":47,"x_max":731,"o":"m 393 989 q 563 939 497 989 q 666 813 629 889 q 717 645 703 736 q 731 474 731 554 q 726 351 731 414 q 704 228 721 288 q 656 119 688 169 q 569 32 624 68 q 603 17 585 22 q 642 11 621 11 q 703 -15 678 11 q 729 -76 729 -40 q 703 -139 729 -112 q 642 -165 678 -165 q 490 -125 561 -165 q 374 -17 419 -85 q 210 36 274 -11 q 110 156 147 83 q 60 315 74 228 q 47 485 47 401 q 71 694 47 601 q 140 853 94 788 q 249 954 185 919 q 393 989 313 989 m 393 769 q 324 734 350 769 q 285 651 299 699 q 267 557 271 604 q 264 485 264 510 q 265 429 264 464 q 273 357 267 394 q 291 285 279 319 q 324 229 303 250 q 346 213 331 221 q 393 206 361 206 q 440 213 425 206 q 461 226 454 219 q 490 274 479 244 q 506 336 500 303 q 513 403 511 369 q 515 461 515 436 q 513 540 515 489 q 497 643 510 592 q 460 732 485 694 q 393 769 436 769 z "},"R":{"ha":758,"x_min":89,"x_max":711,"o":"m 197 988 l 378 986 q 506 960 446 986 q 613 890 567 935 q 685 786 658 846 q 711 658 711 726 q 696 560 711 607 q 653 475 681 514 q 587 406 625 436 q 504 357 549 376 l 674 153 q 696 90 696 126 q 667 21 696 50 q 599 -8 639 -8 q 556 1 576 -8 q 521 28 536 10 l 306 289 l 306 100 q 274 22 306 56 q 197 -11 242 -11 q 122 19 151 -11 q 92 99 92 49 l 89 879 q 119 956 89 924 q 197 988 149 988 m 306 769 l 306 547 l 379 549 q 458 581 425 550 q 490 658 490 613 q 458 737 490 704 q 379 769 425 769 l 306 769 z "},"S":{"ha":688,"x_min":47,"x_max":640,"o":"m 353 989 q 441 972 399 989 q 519 928 483 956 q 583 863 556 900 q 629 785 611 826 q 640 735 640 758 q 615 660 640 686 q 542 633 589 633 q 497 644 515 633 q 463 670 478 654 q 435 704 447 686 q 410 738 424 722 q 379 763 396 753 q 339 772 363 772 q 300 758 317 771 q 283 719 283 744 q 297 685 283 704 q 330 645 311 665 q 368 608 349 625 q 399 581 388 592 q 483 507 440 540 q 561 436 526 474 q 618 351 596 399 q 640 236 640 304 q 614 131 640 178 q 544 51 588 85 q 448 1 501 18 q 340 -17 394 -17 q 152 49 226 -17 q 51 222 78 114 q 47 250 47 238 q 73 329 47 299 q 147 360 99 360 q 197 348 178 360 q 228 318 215 336 q 251 280 242 300 q 272 242 260 260 q 299 212 283 224 q 339 200 314 200 q 394 215 372 200 q 415 256 415 229 q 401 292 415 274 q 364 332 388 311 q 311 376 340 353 q 250 428 282 400 q 185 486 218 457 q 126 549 153 515 q 83 623 100 583 q 67 711 67 663 q 89 823 67 772 q 150 910 111 874 q 241 968 189 947 q 353 989 293 989 z "},"T":{"ha":688,"x_min":17,"x_max":671,"o":"m 119 975 l 567 972 q 640 942 610 972 q 671 869 671 913 q 640 799 671 826 q 567 771 610 772 l 456 768 l 453 97 q 422 19 453 51 q 347 -12 392 -12 q 271 19 303 -12 q 239 97 239 51 l 238 767 l 119 765 q 47 796 76 765 q 17 869 17 826 q 47 944 17 913 q 119 975 76 975 z "},"U":{"ha":803,"x_min":58,"x_max":744,"o":"m 171 983 q 249 956 215 983 q 282 874 282 929 l 279 369 q 289 306 279 336 q 316 252 299 275 q 356 216 333 229 q 403 203 378 203 q 450 216 428 203 q 489 252 472 229 q 515 306 506 275 q 525 369 525 336 l 526 871 q 558 952 526 926 q 635 978 589 978 q 677 968 657 978 q 712 942 697 958 q 735 903 726 925 q 744 858 744 882 l 739 369 q 711 219 738 290 q 640 97 685 149 q 534 14 594 44 q 403 -17 474 -17 q 270 13 332 -17 q 163 95 208 43 q 90 217 117 147 q 63 367 63 288 l 58 871 q 67 915 58 894 q 92 950 76 935 q 128 974 108 965 q 171 983 149 983 z "},"V":{"ha":722,"x_min":19,"x_max":703,"o":"m 129 985 q 193 969 165 985 q 235 903 221 954 l 351 450 l 488 906 q 527 962 499 942 q 589 982 556 982 q 669 950 635 982 q 703 872 703 918 q 697 839 703 854 l 449 60 q 408 4 438 25 q 342 -17 378 -17 q 277 6 306 -15 q 239 64 249 28 l 24 844 q 19 874 19 860 q 28 916 19 896 q 52 951 38 936 q 87 976 67 967 q 129 985 107 985 z "},"W":{"ha":993,"x_min":39,"x_max":954,"o":"m 147 983 q 219 956 188 983 q 257 889 250 929 l 314 544 l 406 878 q 440 931 415 911 q 499 950 464 950 q 555 930 531 950 q 588 878 579 910 l 676 544 l 735 890 q 774 955 742 929 q 844 981 806 981 q 887 972 867 981 q 922 947 907 963 q 945 913 936 932 q 954 871 954 893 q 954 862 954 867 q 953 853 954 857 l 814 81 q 777 16 807 42 q 707 -10 747 -10 q 640 13 668 -10 q 601 74 611 36 l 496 488 l 392 72 q 353 13 382 36 q 286 -11 325 -11 q 215 14 246 -11 q 178 79 185 39 l 40 856 q 39 865 39 860 q 39 874 39 869 q 71 955 39 926 q 147 983 103 983 z "},"X":{"ha":703,"x_min":36,"x_max":667,"o":"m 146 985 q 203 969 176 985 q 243 926 229 953 l 353 706 l 461 925 q 501 967 474 951 q 560 983 528 983 q 601 975 582 983 q 635 952 621 967 q 658 917 650 938 q 667 875 667 897 q 654 824 667 847 l 476 486 l 654 150 q 667 100 667 128 q 638 22 667 56 q 564 -11 608 -11 q 505 4 535 -11 q 461 47 475 19 l 353 267 l 243 47 q 194 1 226 14 q 132 -11 163 -11 q 62 21 88 -11 q 36 97 36 53 q 50 150 36 125 l 229 486 l 50 824 q 38 875 38 847 q 47 917 38 897 q 70 952 56 938 q 104 976 85 967 q 146 985 124 985 z "},"Y":{"ha":706,"x_min":17,"x_max":689,"o":"m 125 985 q 182 969 156 985 q 222 925 208 953 l 343 672 l 486 931 q 527 972 501 958 q 581 985 553 985 q 622 976 603 985 q 656 953 642 968 q 680 919 671 939 q 689 876 689 899 q 674 821 689 847 l 443 433 l 447 97 q 439 55 447 75 q 415 20 431 35 q 380 -3 400 6 q 338 -11 360 -11 q 254 21 282 -11 q 228 97 226 53 l 232 429 l 28 826 q 17 874 17 847 q 49 958 17 931 q 125 985 81 985 z "},"Z":{"ha":696,"x_min":33,"x_max":663,"o":"m 143 978 l 554 974 q 631 942 599 974 q 663 865 663 911 q 643 803 663 831 l 324 214 l 554 218 q 597 209 576 218 q 631 184 617 200 q 654 147 646 168 q 663 104 663 126 q 631 26 663 58 q 554 -6 599 -6 l 143 -6 q 57 26 81 -6 q 33 104 33 58 q 38 138 33 121 q 53 169 43 156 l 372 758 l 143 754 q 101 763 121 754 q 65 787 81 771 q 42 824 50 803 q 33 867 33 844 q 65 944 33 911 q 143 978 97 978 z "},"a":{"ha":729,"x_min":19,"x_max":715,"o":"m 375 992 q 447 970 414 992 q 490 910 479 949 l 707 131 q 694 43 715 81 q 631 -6 674 6 q 600 -10 614 -10 q 528 14 560 -10 q 486 72 497 38 l 461 188 l 269 183 l 240 68 q 199 13 229 36 q 131 -11 168 -11 q 52 21 85 -11 q 19 100 19 53 q 20 117 19 108 q 24 135 21 125 l 272 913 q 313 973 286 954 q 375 992 340 992 m 372 590 l 318 375 l 419 376 l 372 590 z "},"b":{"ha":771,"x_min":89,"x_max":732,"o":"m 196 983 l 392 985 q 510 961 454 985 q 607 896 565 938 q 672 799 649 854 q 696 683 696 744 q 671 582 696 632 q 608 506 646 532 q 699 415 667 474 q 732 293 732 356 q 708 175 732 231 q 644 78 685 119 q 549 13 603 36 q 432 -11 494 -11 l 196 -11 q 115 22 139 -11 q 92 99 92 54 l 89 875 q 120 951 89 919 q 196 983 151 983 m 304 765 l 304 588 l 392 588 q 453 615 428 588 q 478 679 478 643 q 453 740 478 715 q 392 765 428 765 l 304 765 m 304 378 l 304 207 l 432 207 q 491 231 467 207 q 515 290 515 256 q 491 351 515 325 q 432 378 467 378 l 304 378 z "},"c":{"ha":753,"x_min":47,"x_max":711,"o":"m 400 989 q 594 926 517 989 q 697 749 672 863 q 701 715 701 732 q 672 636 701 668 q 594 604 643 604 q 526 629 549 604 q 488 684 504 654 q 454 739 472 714 q 400 764 436 764 q 331 731 357 764 q 292 653 306 699 q 276 560 279 608 q 272 481 272 513 q 274 397 272 446 q 287 306 275 349 q 325 232 299 263 q 400 201 351 201 q 467 224 444 201 q 506 273 489 246 q 545 322 524 300 q 610 344 567 344 q 683 319 654 344 q 711 247 711 294 q 706 204 711 222 q 663 108 692 150 q 594 39 635 67 q 504 -3 554 11 q 400 -17 454 -17 q 225 29 293 -17 q 117 148 157 75 q 63 310 78 221 q 47 486 47 399 q 65 658 47 569 q 123 821 82 747 q 231 942 164 894 q 400 989 299 989 z "},"d":{"ha":776,"x_min":89,"x_max":729,"o":"m 201 983 l 317 983 q 464 958 390 983 q 597 877 538 933 q 692 729 656 821 q 729 503 729 638 q 693 272 729 369 q 597 110 657 174 q 463 15 538 46 q 310 -17 388 -17 l 201 -17 q 126 16 157 -17 q 94 93 94 49 l 89 874 q 98 917 89 897 q 123 951 107 936 q 159 975 139 967 q 201 983 179 983 m 303 765 l 303 201 q 451 281 396 201 q 507 507 507 360 q 485 656 507 604 q 433 733 463 708 q 372 761 403 757 q 324 765 342 765 l 303 765 z "},"e":{"ha":674,"x_min":89,"x_max":640,"o":"m 197 978 l 531 978 q 610 953 579 975 q 640 885 640 931 q 608 796 640 832 q 521 760 575 760 l 306 761 l 306 599 l 513 601 q 584 571 560 603 q 608 503 608 539 q 578 433 608 458 q 508 408 549 408 l 306 410 l 306 211 l 531 213 q 608 178 576 213 q 640 94 640 144 q 615 23 640 54 q 531 -8 589 -8 l 197 -8 q 142 0 163 -8 q 110 23 121 8 q 95 58 99 38 q 92 101 92 79 l 89 868 q 121 951 89 925 q 197 978 153 978 z "},"f":{"ha":660,"x_min":89,"x_max":649,"o":"m 197 978 l 553 979 q 625 948 601 976 q 649 882 649 919 q 613 794 649 831 q 526 758 578 758 l 307 760 l 307 599 l 501 601 q 543 593 525 601 q 574 570 561 585 q 593 538 586 556 q 600 500 600 519 q 565 430 600 456 q 489 404 531 404 l 307 406 l 306 99 q 273 21 306 53 q 190 -11 240 -11 q 121 15 150 -11 q 92 99 92 40 l 89 868 q 115 945 89 913 q 197 978 142 978 z "},"g":{"ha":771,"x_min":47,"x_max":726,"o":"m 400 983 q 503 968 454 983 q 590 924 553 953 q 650 856 628 896 q 672 764 672 815 q 650 682 672 715 q 583 649 628 649 q 515 669 547 649 q 468 722 483 690 q 435 757 453 750 q 404 764 417 764 q 332 730 358 764 q 292 648 306 696 q 276 548 279 600 q 272 458 272 496 q 274 375 272 419 q 290 292 276 331 q 331 228 303 254 q 408 203 358 203 q 477 224 453 203 q 512 271 501 244 q 524 321 522 297 q 526 350 526 344 l 486 347 q 449 351 468 346 q 413 367 429 356 q 385 397 396 379 q 374 440 374 415 q 401 512 374 481 q 483 543 429 543 l 610 546 q 672 529 649 546 q 707 486 694 513 q 723 428 719 460 q 726 367 726 396 q 708 223 726 292 q 649 101 689 154 q 547 15 608 47 q 400 -17 486 -17 q 238 23 306 -17 q 128 126 171 63 q 67 272 86 190 q 47 438 47 353 q 142 843 47 703 q 400 983 236 983 z "},"h":{"ha":807,"x_min":89,"x_max":718,"o":"m 194 983 q 276 951 243 983 q 308 875 308 919 l 308 590 l 500 594 l 500 875 q 533 952 500 921 q 615 983 567 983 q 687 958 656 983 q 718 875 718 932 l 715 111 q 708 49 715 72 q 687 12 700 25 q 657 -6 674 -1 q 624 -11 640 -11 q 535 21 568 -11 q 501 99 501 53 l 501 403 l 307 400 l 307 111 q 275 24 307 58 q 194 -11 243 -11 q 121 17 153 -11 q 89 99 89 46 l 89 875 q 121 957 89 931 q 194 983 153 983 z "},"i":{"ha":400,"x_min":89,"x_max":311,"o":"m 207 983 q 276 956 247 983 q 311 875 306 928 l 308 108 q 300 65 308 86 q 276 26 292 43 q 240 -1 261 10 q 193 -11 218 -11 q 122 17 153 -11 q 90 97 90 44 l 89 867 q 98 910 89 889 q 123 947 107 931 q 160 974 139 964 q 207 983 182 983 z "},"j":{"ha":675,"x_min":11,"x_max":594,"o":"m 478 983 q 562 951 529 983 q 594 874 594 919 l 593 326 q 573 183 593 247 q 515 75 553 119 q 422 7 476 31 q 300 -17 368 -17 q 165 13 221 -17 q 76 86 110 43 q 26 178 42 129 q 11 265 11 228 q 43 362 11 328 q 121 396 75 396 q 191 365 165 396 q 222 289 217 335 q 297 203 231 203 q 324 205 310 203 q 350 218 338 207 q 370 255 363 229 q 378 326 378 281 l 376 857 q 381 903 376 881 q 397 943 386 925 q 428 972 408 961 q 478 983 449 983 z "},"k":{"ha":769,"x_min":89,"x_max":742,"o":"m 200 983 q 274 955 242 983 q 306 875 306 926 l 306 589 l 546 929 q 585 963 561 950 q 635 975 608 975 q 706 944 678 975 q 735 871 735 913 q 707 788 735 824 l 494 486 l 718 174 q 742 93 742 133 q 714 22 742 51 q 644 -8 686 -8 q 542 53 588 -8 l 306 385 l 306 113 q 272 26 306 63 q 183 -11 238 -11 q 149 -6 165 -11 q 119 14 132 0 q 98 52 106 28 q 90 114 90 76 l 89 860 q 122 947 93 911 q 200 983 151 983 z "},"l":{"ha":653,"x_min":89,"x_max":643,"o":"m 201 983 q 271 955 243 983 q 306 874 299 926 l 306 211 l 533 213 q 611 180 579 213 q 643 103 643 147 q 611 25 643 57 q 533 -7 579 -7 l 196 -7 q 120 25 151 -7 q 89 101 89 57 l 90 867 q 124 949 94 914 q 201 983 153 983 z "},"m":{"ha":1053,"x_min":76,"x_max":975,"o":"m 226 983 q 289 963 264 983 q 328 906 314 942 l 528 375 l 732 918 q 773 966 743 949 q 835 983 803 983 q 908 953 878 983 q 940 879 938 924 l 974 92 q 966 52 975 71 q 942 19 957 33 q 907 -3 926 6 q 867 -11 888 -11 q 824 -1 844 -11 q 790 25 804 8 q 767 63 775 42 q 757 104 758 83 l 743 394 l 619 68 q 583 24 608 40 q 529 7 558 7 q 471 26 497 7 q 433 74 444 44 l 311 394 l 299 99 q 263 21 296 53 q 183 -11 231 -11 q 104 22 132 -11 q 79 101 76 54 l 114 879 q 149 953 117 924 q 226 983 181 983 z "},"n":{"ha":835,"x_min":89,"x_max":746,"o":"m 197 983 q 256 966 229 983 q 297 921 282 949 l 528 482 l 528 886 q 556 956 528 928 q 626 983 585 983 q 710 951 676 983 q 744 867 744 918 l 746 99 q 713 22 746 54 q 636 -11 681 -11 q 574 8 597 -11 q 535 60 551 28 l 306 489 l 304 104 q 277 20 304 51 q 197 -11 250 -11 q 122 21 153 -11 q 90 97 90 53 l 89 875 q 113 953 89 924 q 197 983 138 983 z "},"o":{"ha":822,"x_min":50,"x_max":772,"o":"m 418 989 q 601 944 532 989 q 709 831 671 900 q 760 678 747 763 q 772 515 772 594 q 758 333 772 426 q 703 161 743 239 q 594 33 664 83 q 414 -17 525 -17 q 237 31 307 -17 q 125 152 167 78 q 67 319 83 226 q 50 504 50 413 q 64 667 50 582 q 117 824 78 753 q 229 942 157 896 q 418 989 301 989 m 418 772 q 338 741 367 772 q 294 668 308 710 q 278 585 281 626 q 275 522 275 543 q 280 424 275 479 q 299 319 285 368 q 341 237 314 271 q 411 203 368 203 q 485 240 457 203 q 526 326 513 276 q 544 425 540 375 q 549 501 549 475 q 547 585 549 539 q 532 674 544 632 q 493 744 519 715 q 418 772 467 772 z "},"p":{"ha":753,"x_min":88,"x_max":739,"o":"m 200 989 l 408 989 q 537 963 476 989 q 642 892 597 936 q 713 787 686 847 q 739 657 739 726 q 713 528 739 589 q 642 422 686 467 q 537 350 597 376 q 408 325 476 324 l 308 326 l 308 108 q 276 18 306 49 q 201 -12 246 -12 q 124 20 154 -12 q 93 97 93 53 l 88 879 q 121 957 88 925 q 200 989 154 989 m 308 771 l 308 543 l 408 543 q 487 576 454 543 q 519 657 519 610 q 487 738 519 704 q 408 771 454 771 l 308 771 z "},"q":{"ha":789,"x_min":47,"x_max":731,"o":"m 393 989 q 563 939 497 989 q 666 813 629 889 q 717 645 703 736 q 731 474 731 554 q 726 351 731 414 q 704 228 721 288 q 656 119 688 169 q 569 32 624 68 q 603 17 585 22 q 642 11 621 11 q 703 -15 678 11 q 729 -76 729 -40 q 703 -139 729 -112 q 642 -165 678 -165 q 490 -125 561 -165 q 374 -17 419 -85 q 210 36 274 -11 q 110 156 147 83 q 60 315 74 228 q 47 485 47 401 q 71 694 47 601 q 140 853 94 788 q 249 954 185 919 q 393 989 313 989 m 393 769 q 324 734 350 769 q 285 651 299 699 q 267 557 271 604 q 264 485 264 510 q 265 429 264 464 q 273 357 267 394 q 291 285 279 319 q 324 229 303 250 q 346 213 331 221 q 393 206 361 206 q 440 213 425 206 q 461 226 454 219 q 490 274 479 244 q 506 336 500 303 q 513 403 511 369 q 515 461 515 436 q 513 540 515 489 q 497 643 510 592 q 460 732 485 694 q 393 769 436 769 z "},"r":{"ha":758,"x_min":89,"x_max":711,"o":"m 197 988 l 378 986 q 506 960 446 986 q 613 890 567 935 q 685 786 658 846 q 711 658 711 726 q 696 560 711 607 q 653 475 681 514 q 587 406 625 436 q 504 357 549 376 l 674 153 q 696 90 696 126 q 667 21 696 50 q 599 -8 639 -8 q 556 1 576 -8 q 521 28 536 10 l 306 289 l 306 100 q 274 22 306 56 q 197 -11 242 -11 q 122 19 151 -11 q 92 99 92 49 l 89 879 q 119 956 89 924 q 197 988 149 988 m 306 769 l 306 547 l 379 549 q 458 581 425 550 q 490 658 490 613 q 458 737 490 704 q 379 769 425 769 l 306 769 z "},"s":{"ha":688,"x_min":47,"x_max":640,"o":"m 353 989 q 441 972 399 989 q 519 928 483 956 q 583 863 556 900 q 629 785 611 826 q 640 735 640 758 q 615 660 640 686 q 542 633 589 633 q 497 644 515 633 q 463 670 478 654 q 435 704 447 686 q 410 738 424 722 q 379 763 396 753 q 339 772 363 772 q 300 758 317 771 q 283 719 283 744 q 297 685 283 704 q 330 645 311 665 q 368 608 349 625 q 399 581 388 592 q 483 507 440 540 q 561 436 526 474 q 618 351 596 399 q 640 236 640 304 q 614 131 640 178 q 544 51 588 85 q 448 1 501 18 q 340 -17 394 -17 q 152 49 226 -17 q 51 222 78 114 q 47 250 47 238 q 73 329 47 299 q 147 360 99 360 q 197 348 178 360 q 228 318 215 336 q 251 280 242 300 q 272 242 260 260 q 299 212 283 224 q 339 200 314 200 q 394 215 372 200 q 415 256 415 229 q 401 292 415 274 q 364 332 388 311 q 311 376 340 353 q 250 428 282 400 q 185 486 218 457 q 126 549 153 515 q 83 623 100 583 q 67 711 67 663 q 89 823 67 772 q 150 910 111 874 q 241 968 189 947 q 353 989 293 989 z "},"t":{"ha":688,"x_min":17,"x_max":671,"o":"m 567 771 l 456 768 l 453 97 q 422 19 453 51 q 347 -12 392 -12 q 271 19 303 -12 q 239 97 239 51 l 238 767 l 119 765 q 47 796 76 765 q 17 869 17 826 q 47 944 17 913 q 119 975 76 975 l 567 972 q 640 942 610 972 q 671 869 671 913 q 640 799 671 826 q 567 771 610 772 z "},"u":{"ha":803,"x_min":58,"x_max":744,"o":"m 171 983 q 249 956 215 983 q 282 874 282 929 l 279 369 q 289 306 279 336 q 316 252 299 275 q 356 216 333 229 q 403 203 378 203 q 450 216 428 203 q 489 252 472 229 q 515 306 506 275 q 525 369 525 336 l 526 871 q 558 952 526 926 q 635 978 589 978 q 677 968 657 978 q 712 942 697 958 q 735 903 726 925 q 744 858 744 882 l 739 369 q 711 219 738 290 q 640 97 685 149 q 534 14 594 44 q 403 -17 474 -17 q 270 13 332 -17 q 163 95 208 43 q 90 217 117 147 q 63 367 63 288 l 58 871 q 67 915 58 894 q 92 950 76 935 q 128 974 108 965 q 171 983 149 983 z "},"v":{"ha":722,"x_min":19,"x_max":703,"o":"m 129 985 q 193 969 165 985 q 235 903 221 954 l 351 450 l 488 906 q 527 962 499 942 q 589 982 556 982 q 669 950 635 982 q 703 872 703 918 q 697 839 703 854 l 449 60 q 408 4 438 25 q 342 -17 378 -17 q 277 6 306 -15 q 239 64 249 28 l 24 844 q 19 874 19 860 q 28 916 19 896 q 52 951 38 936 q 87 976 67 967 q 129 985 107 985 z "},"w":{"ha":993,"x_min":39,"x_max":954,"o":"m 147 983 q 219 956 188 983 q 257 889 250 929 l 314 544 l 406 878 q 440 931 415 911 q 499 950 464 950 q 555 930 531 950 q 588 878 579 910 l 676 544 l 735 890 q 774 955 742 929 q 844 981 806 981 q 887 972 867 981 q 922 947 907 963 q 945 913 936 932 q 954 871 954 893 q 954 862 954 867 q 953 853 954 857 l 814 81 q 777 16 807 42 q 707 -10 747 -10 q 640 13 668 -10 q 601 74 611 36 l 496 488 l 392 72 q 353 13 382 36 q 286 -11 325 -11 q 215 14 246 -11 q 178 79 185 39 l 40 856 q 39 865 39 860 q 39 874 39 869 q 71 955 39 926 q 147 983 103 983 z "},"x":{"ha":703,"x_min":36,"x_max":667,"o":"m 146 985 q 203 969 176 985 q 243 926 229 953 l 353 706 l 461 925 q 501 967 474 951 q 560 983 528 983 q 601 975 582 983 q 635 952 621 967 q 658 917 650 938 q 667 875 667 897 q 654 824 667 847 l 476 486 l 654 150 q 667 100 667 128 q 638 22 667 56 q 564 -11 608 -11 q 505 4 535 -11 q 461 47 475 19 l 353 267 l 243 47 q 194 1 226 14 q 132 -11 163 -11 q 62 21 88 -11 q 36 97 36 53 q 50 150 36 125 l 229 486 l 50 824 q 38 875 38 847 q 47 917 38 897 q 70 952 56 938 q 104 976 85 967 q 146 985 124 985 z "},"y":{"ha":706,"x_min":17,"x_max":689,"o":"m 125 985 q 182 969 156 985 q 222 925 208 953 l 343 672 l 486 931 q 527 972 501 958 q 581 985 553 985 q 622 976 603 985 q 656 953 642 968 q 680 919 671 939 q 689 876 689 899 q 674 821 689 847 l 443 433 l 447 97 q 439 55 447 75 q 415 20 431 35 q 380 -3 400 6 q 338 -11 360 -11 q 254 21 282 -11 q 228 97 226 53 l 232 429 l 28 826 q 17 874 17 847 q 49 958 17 931 q 125 985 81 985 z "},"z":{"ha":696,"x_min":33,"x_max":663,"o":"m 143 978 l 554 974 q 631 942 599 974 q 663 865 663 911 q 643 803 663 831 l 324 214 l 554 218 q 597 209 576 218 q 631 184 617 200 q 654 147 646 168 q 663 104 663 126 q 631 26 663 58 q 554 -6 599 -6 l 143 -6 q 57 26 81 -6 q 33 104 33 58 q 38 138 33 121 q 53 169 43 156 l 372 758 l 143 754 q 101 763 121 754 q 65 787 81 771 q 42 824 50 803 q 33 867 33 844 q 65 944 33 911 q 143 978 97 978 z "}}}
